<?xml version="1.0" encoding="UTF-8" standalone="no"?>
<!-- Created with Inkscape (http://www.inkscape.org/) -->

<svg
   xmlns:dc="http://purl.org/dc/elements/1.1/"
   xmlns:cc="http://creativecommons.org/ns#"
   xmlns:rdf="http://www.w3.org/1999/02/22-rdf-syntax-ns#"
   xmlns:svg="http://www.w3.org/2000/svg"
   xmlns="http://www.w3.org/2000/svg"
   xmlns:sodipodi="http://sodipodi.sourceforge.net/DTD/sodipodi-0.dtd"
   xmlns:inkscape="http://www.inkscape.org/namespaces/inkscape"
   width="200mm"
   height="200mm"
   viewBox="0 0 200 200"
   version="1.1"
   id="svg8"
   inkscape:version="0.92.2 (5c3e80d, 2017-08-06)"
   sodipodi:docname="logo.svg">
  <defs
     id="defs2">
    <inkscape:path-effect
       effect="bspline"
       id="path-effect3716"
       is_visible="true"
       weight="33.333333"
       steps="2"
       helper_size="0"
       apply_no_weight="true"
       apply_with_weight="true"
       only_selected="false" />
  </defs>
  <sodipodi:namedview
     id="base"
     pagecolor="#ffffff"
     bordercolor="#666666"
     borderopacity="1.0"
     inkscape:pageopacity="0"
     inkscape:pageshadow="2"
     inkscape:zoom="0.27023919"
     inkscape:cx="-708.37835"
     inkscape:cy="555.80404"
     inkscape:document-units="mm"
     inkscape:current-layer="layer1"
     showgrid="false"
     showguides="false"
     inkscape:window-width="1920"
     inkscape:window-height="1027"
     inkscape:window-x="-8"
     inkscape:window-y="1078"
     inkscape:window-maximized="1"
     fit-margin-top="0"
     fit-margin-left="0"
     fit-margin-right="0"
     fit-margin-bottom="0" />
  <metadata
     id="metadata5">
    <rdf:RDF>
      <cc:Work
         rdf:about="">
        <dc:format>image/svg+xml</dc:format>
        <dc:type
           rdf:resource="http://purl.org/dc/dcmitype/StillImage" />
        <dc:title></dc:title>
      </cc:Work>
    </rdf:RDF>
  </metadata>
  <g
     inkscape:label="Ebene 1"
     inkscape:groupmode="layer"
     id="layer1"
     transform="translate(-16.835347,-3.5140734)">
    <path
       id="rect3699"
       style="stroke-width:0.26458332"
       d="m 105.71296,78.222613 c -0.0652,0.155265 -0.12887,0.29927 -0.19533,0.458369 h 0.27026 c -0.0193,-0.114583 -0.0571,-0.359563 -0.0749,-0.458369 z"
       inkscape:connector-curvature="0" />
    <path
       id="rect3706"
       style="stroke-width:0.26458332"
       d="m 83.556147,126.85684 c -0.05679,0.14108 -0.116993,0.28094 -0.174664,0.42168 v 0.39326 c 0.05835,-0.27155 0.116483,-0.54759 0.174664,-0.81494 z m 7.385079,1.44436 c -0.02991,0.091 -0.06069,0.18178 -0.09043,0.27285 h 0.09043 z"
       inkscape:connector-curvature="0" />
    <path
       style="opacity:1;fill:#333333;fill-opacity:1;stroke-width:1.30774748"
       id="path3870-5"
       d="m 91.221577,77.76939 c 4.42979,-0.12143 8.864073,-0.11826 13.296583,-0.12118 2.96825,-0.18115 6.03608,0.118236 8.99502,-0.117384 2.90837,-0.267468 5.03829,-0.303426 6.33512,-0.389852 3.91632,-0.303477 6.08565,-0.313732 10.2821,-0.497799 4.024,-0.440618 10.20605,-1.046565 14.737,-1.824295 3.81863,-0.66051 -19.48624,12.02738 -19.46188,15.16393 0.0125,3.11093 -0.67343,6.22188 -0.67543,9.332816 0.0972,3.746304 -0.21681,5.670464 -0.002,9.121244 -0.14761,3.54754 0.0572,5.66832 0.34198,8.52522 0.087,3.80595 0.21528,5.61102 0.29653,8.76093 0.0565,3.11659 0.0457,6.23353 0.0422,9.35028 -0.005,3.10931 -0.007,6.21862 -0.01,9.32793 0.0529,2.99382 0.12039,6.44066 0.29361,9.43277 -0.15116,2.94957 0.30492,4.87961 0.67443,7.64357 0.33492,3.06973 1.26585,5.5073 1.28699,8.58397 0.2235,2.6749 1.20371,6.03982 1.68151,8.70058 0.18715,1.27092 -0.11351,-0.92801 0,0 l -33.552203,22.13167 v 0 c -0.22399,-0.97941 -0.11435,-0.41499 -0.28896,-1.69672 -0.31931,-2.76895 -0.54711,-3.91064 -1.52499,-6.6061 -7.9e-4,-3.01983 -0.96959,-5.42843 -1.3688,-9.12085 -0.21226,-2.71739 -0.72594,-6.71566 -1.1022,-9.57436 0.19209,-3.27317 -0.0556,-6.20019 -0.24167,-9.30121 8e-4,-3.10984 0.001,-4.70778 0.006,-7.81761 0.005,-3.10607 0.016,-7.72406 -0.001,-10.83013 -0.0326,-3.06921 0.38393,3.05989 0,0 -0.4445,-3.06658 -0.5076,-14.57425 -0.32029,-17.64561 0.43286,-2.72098 0.15626,-6.84018 0.31893,-9.54971 0.004,-3.10786 0.0112,-5.45976 0.0143,-8.56762 -0.004,-3.0836 0.005,-6.16865 -0.18287,-9.25013 -0.24596,-3.12474 -0.70816,-6.23555 -1.60784,-9.30645 -0.73702,-3.19448 -0.320468,-5.215521 0.268392,-8.407891 0.37339,-1.526805 42.113571,-6.629352 48.294491,-7.581695 11.22773,-1.729947 46.85931,-7.036605 43.15117,-4.652415 -8.50698,5.368751 -18.03458,15.182695 -33.06336,20.464015 -4.01178,1.38328 -8.82773,2.543548 -13.23853,3.086218 -3.86256,0.62056 -7.84136,1.805413 -11.74495,2.322683 -3.76134,0.7702 -7.49665,0.930805 -11.26539,1.683944 -3.87476,0.411587 -7.66438,1.159544 -11.57579,1.356324 -3.963113,0.184467 -10.33972,0.0368 -14.21378,0.662047 -4.36273,0.43117 -46.687964,1.23754 -53.91481,1.73199 L 69.772451,78.91594 c 0,0 17.602576,-1.01012 21.449126,-1.14655 z"
       inkscape:connector-curvature="0"
       sodipodi:nodetypes="ccccccccccccccccccccccccccccccccccscccccccccc" />
    <path
       style="opacity:0.3;fill:#871995;fill-opacity:1;stroke-width:1.30774748"
       id="path3870-5-6"
       d="m 104.45929,78.151815 c 2.96825,-0.18115 6.03607,0.24062 8.99502,0.005 1.20462,-0.0957 2.34583,-0.42581 3.52028,-0.63462 4.0187,-0.65063 7.03075,-0.76929 11.13878,-0.86495 3.65686,-0.19585 6.97188,-0.55703 11.50284,-1.33476 3.81862,-0.66051 6.39444,-1.10778 10.23622,-1.71763 0.7395,-0.0873 3.0716,-0.79165 3.79213,-0.93616 1.2155,-0.24376 3.88958,-1.16686 5.0982,-1.42648 1.95805,-0.42063 8.89797,-6.00576 10.92346,-6.18511 3.11699,-2.44116 15.11904,-13.0594 15.11904,-13.0594 l -15.95474,15.96615 15.80826,-21.87611 -7.72189,14.22796 c 2.60102,-1.76372 -15.20699,16.402011 -13.50838,14.194261 1.94577,-2.59001 3.1577,-8.642861 3.48408,-11.509141 0.53792,-3.06692 0.18921,-9.35713 -0.6496,-12.96109 -1.12088,-3.20309 -2.08162,-5.03858 -4.10922,-7.63576 -2.02816,-2.91761 -4.57256,-4.38357 -6.95184,-5.68463 -1.91633,-1.798247 -6.8075,-2.735687 -9.83073,-3.395567 -3.40414,-0.73784 -5.96995,-0.89991 -9.54692,-1.22401 -3.56384,-0.0797 -6.17758,0.27179 -9.76367,0.53995 -4.18848,0.78695 13.68651,-6.1232 13.68651,-6.1232 l -8.22722,1.84206 c 0,0 -2.50544,4.82715 -3.35239,7.83473 -1.24946,2.582687 -1.84119,4.985647 -2.47792,7.915567 -1.02482,3.23763 -1.24167,6.03831 -1.70315,9.05875 -0.51176,3.43176 -0.007,5.69183 -0.0855,9.08167 -0.0847,3.20828 0.32623,6.89986 0.32562,9.93041 -0.0915,3.34169 0.15999,5.99126 0.53848,9.12532 0.099,4.02935 0.57724,6.04484 0.6016,9.18139 0.0125,3.11093 -0.67343,6.22188 -0.67543,9.332808 0.0972,3.746307 -0.21682,5.670467 -0.002,9.121247 -0.14761,3.54754 0.0572,5.66832 0.34198,8.52522 0.087,3.80595 0.21528,5.61102 0.29653,8.76093 0.0565,3.11659 0.0457,6.23353 0.0422,9.35028 -0.005,3.10931 -0.007,6.21863 -0.01,9.32793 0.0529,2.99382 0.12039,6.44066 0.29361,9.43277 -0.15116,2.94957 0.30492,4.87961 0.67443,7.64358 0.33492,3.06973 1.26585,5.50729 1.28699,8.58396 0.2235,2.67491 1.20371,6.03982 1.68151,8.70058 0.18715,1.27093 -0.11351,-0.92801 0,0 L 95.724275,201.3974 v 0 c -0.22399,-0.97942 -0.11435,-0.415 -0.28896,-1.69672 -0.31931,-2.76896 -2.49458,-12.03454 -2.89379,-15.72695 -0.21226,-2.71739 -0.72594,-6.71567 -1.1022,-9.57437 0.19209,-3.27317 -0.0556,-6.20019 -0.24167,-9.30121 7.9e-4,-3.10984 0.001,-4.70778 0.006,-7.8176 0.005,-3.10608 0.016,-7.72407 -0.001,-10.83014 -0.0326,-3.06921 0.38393,3.05989 0,0 -0.4445,-3.06658 -0.5076,-14.57425 -0.32029,-17.64561 0.43286,-2.72098 0.15626,-6.84018 0.31893,-9.54971 0.004,-3.10785 0.0112,-5.45976 0.0143,-8.56762 -0.004,-3.0836 0.005,-6.16865 -0.18287,-9.25013 -0.24596,-3.124738 0.61931,-24.947545 0.14076,-28.077415 -0.006,-3.08008 -0.0285,-6.16144 0.13263,-9.24 0.2074,-2.83423 0.93035,-6.37609 1.68913,-9.51355 0.91473,-3.08574 1.30117,-6.60323 2.51066,-9.777 1.65058,-2.70012 6.379955,-8.901217 9.144395,-11.810907 3.35208,-2.96165 5.98735,-6.12119 9.53412,-8.52681 4.91326,-2.65454 11.96016,-7.10122 26.65913,-12.475 4.06587,-1.44367 8.47239,-2.4232597 13.01235,-2.8322294 3.89647,-0.4182297 7.30911,-0.3807297 11.69232,-0.3781297 3.7146,0.5449197 6.77172,0.8100194 10.38299,1.6052791 3.95648,1.14317 7.50277,2.93073 10.98039,5.62127 2.36311,1.91864 4.67186,4.32483 6.56339,7.3032 2.06215,2.79037 2.27076,3.8559 4.204,6.69454 1.45486,6.23171 1.3779,7.921407 1.9454,11.559687 -0.1524,3.10472 -0.13061,7.3711 -1.05845,10.57843 -1.38043,2.48338 -1.73926,4.75507 -3.94598,6.90302 -106.947785,74.384885 3.93432,-6.52549 0,0 -1.86845,1.65289 -0.70631,0.56078 -2.66688,2.75305 -2.28065,1.6328 -7.55875,7.4658 -14.97505,12.23418 -8.50698,5.98067 -14.60783,12.49025 -29.63661,17.77157 -4.01178,1.38328 -8.3382,2.29878 -12.749,2.84145 -3.86256,0.62056 -7.53787,1.66896 -11.44146,2.18623 -3.76134,0.7702 -7.55537,1.434407 -11.32409,2.187541 -3.87477,0.41159 -7.66438,1.159544 -11.5758,1.356324 -3.963105,0.18447 -0.2243,-22.247335 4.20822,-22.250255 z"
       inkscape:connector-curvature="0"
       sodipodi:nodetypes="ccccccccccccccccccccccccccccccccccccccccccccccccccccccccccccccccccccccccccccccc" />
    <path
       style="opacity:1;fill:#871995;fill-opacity:1;stroke-width:1.30774748"
       id="path3870-5-6-6"
       d="m 153.29841,72.841765 c 1.2155,-0.24375 4.23573,-1.33993 5.44435,-1.59955 1.95805,-0.42063 6.62622,-4.31682 6.62622,-4.31682 0,0 1.19723,-1.05829 1.52361,-3.92457 0.53792,-3.06692 0.18921,-9.35713 -0.6496,-12.96109 -1.12088,-3.20309 -2.08162,-5.03858 -4.10922,-7.63576 -2.02816,-2.91761 -4.57256,-4.38357 -6.95184,-5.68463 -1.91633,-1.79825 -6.8075,-2.73569 -9.83073,-3.39557 -3.40414,-0.73784 -5.96995,-0.89991 -9.54692,-1.22401 -3.56384,-0.0797 -2.2613,-0.21774 -5.84739,0.0504 -1.80938,4.04313 -0.96243,1.03555 -1.80938,4.04313 -1.24946,2.58268 -1.84119,4.98564 -2.47792,7.91557 -1.02482,3.23762 -1.24167,6.03831 -1.70315,9.05874 -0.51176,3.43176 -0.007,5.69183 -0.0855,9.08167 -0.0847,3.20829 0.34548,11.52519 0.34487,14.55573 -8.57227,1.26477 -23.91983,0.89631 -33.052227,0.88183 -0.006,-3.08008 -0.0285,-10.48837 0.13263,-13.56693 0.2074,-2.83423 0.93035,-6.37609 1.68913,-9.51354 0.91473,-3.08574 1.30117,-6.60323 2.51066,-9.777 1.65058,-2.70012 6.379957,-8.90122 9.144397,-11.81091 3.35208,-2.96165 5.98735,-6.12119 9.53411,-8.52681 4.91327,-2.65454 11.96017,-7.10122 26.65914,-12.475 4.06587,-1.44367 8.47239,-2.4232597 13.01235,-2.8322294 3.89647,-0.4182297 7.30911,-0.3807297 11.69232,-0.3781297 3.7146,0.5449197 6.77172,0.8100194 10.38299,1.6052791 3.95648,1.14317 7.50277,2.93073 10.98039,5.62127 2.36311,1.91864 4.67185,4.32483 6.56338,7.3032 2.06215,2.79037 2.27076,3.8559 4.204,6.69454 1.45486,6.23171 1.3779,7.9214 1.9454,11.55968 -0.1524,3.10472 -0.13061,7.3711 -1.05845,10.57844 -1.38043,2.48337 -1.73926,4.75506 -3.94598,6.90301 0,0 -0.7064,0.56078 -2.66697,2.75305 -2.28064,1.6328 -4.34197,4.06365 -11.5135,9.8111 -15.0839,0.78837 -14.19285,0.78409 -31.64539,2.37039 z"
       inkscape:connector-curvature="0"
       sodipodi:nodetypes="ccccccccccccccccccccccccccccccccccc" />
  </g>
</svg>
